<svg id="svg" version="1.1" xmlns="http://www.w3.org/2000/svg" xmlns:xlink="http://www.w3.org/1999/xlink" width="400" height="400" viewBox="0, 0, 400,400"><g id="svgg"><path id="path0" d="M125.000 6.250 L 125.000 12.500 118.750 12.500 L 112.500 12.500 112.500 18.750 L 112.500 25.000 106.250 25.000 L 100.000 25.000 100.000 31.250 L 100.000 37.500 93.750 37.500 L 87.500 37.500 87.500 75.000 L 87.500 112.500 93.750 112.500 L 100.000 112.500 100.000 118.750 L 100.000 125.000 112.500 125.000 L 125.000 125.000 125.000 118.750 L 125.000 112.500 131.250 112.500 L 137.500 112.500 137.500 87.500 L 137.500 62.500 143.750 62.500 L 150.000 62.500 150.000 56.250 L 150.000 50.000 200.000 50.000 L 250.000 50.000 250.000 56.250 L 250.000 62.500 256.250 62.500 L 262.500 62.500 262.500 118.750 L 262.500 175.000 156.250 175.000 L 50.000 175.000 50.000 287.500 L 50.000 400.000 200.000 400.000 L 350.000 400.000 350.000 287.500 L 350.000 175.000 331.250 175.000 L 312.500 175.000 312.500 106.250 L 312.500 37.500 306.250 37.500 L 300.000 37.500 300.000 31.250 L 300.000 25.000 293.750 25.000 L 287.500 25.000 287.500 18.750 L 287.500 12.500 281.250 12.500 L 275.000 12.500 275.000 6.250 L 275.000 0.000 200.000 0.000 L 125.000 0.000 125.000 6.250 M275.000 18.750 L 275.000 25.000 281.250 25.000 L 287.500 25.000 287.500 31.250 L 287.500 37.500 293.750 37.500 L 300.000 37.500 300.000 106.250 L 300.000 175.000 287.500 175.000 L 275.000 175.000 275.000 118.750 L 275.000 62.500 268.750 62.500 L 262.500 62.500 262.500 56.250 L 262.500 50.000 256.250 50.000 L 250.000 50.000 250.000 43.750 L 250.000 37.500 200.000 37.500 L 150.000 37.500 150.000 43.750 L 150.000 50.000 143.750 50.000 L 137.500 50.000 137.500 56.250 L 137.500 62.500 131.250 62.500 L 125.000 62.500 125.000 87.500 L 125.000 112.500 112.500 112.500 L 100.000 112.500 100.000 75.000 L 100.000 37.500 106.250 37.500 L 112.500 37.500 112.500 31.250 L 112.500 25.000 118.750 25.000 L 125.000 25.000 125.000 18.750 L 125.000 12.500 200.000 12.500 L 275.000 12.500 275.000 18.750 M337.500 287.500 L 337.500 387.500 200.000 387.500 L 62.500 387.500 62.500 287.500 L 62.500 187.500 200.000 187.500 L 337.500 187.500 337.500 287.500 M75.000 287.500 L 75.000 375.000 200.000 375.000 L 325.000 375.000 325.000 287.500 L 325.000 200.000 200.000 200.000 L 75.000 200.000 75.000 287.500 M275.000 218.750 L 275.000 225.000 281.250 225.000 L 287.500 225.000 287.500 231.250 L 287.500 237.500 293.750 237.500 L 300.000 237.500 300.000 243.750 L 300.000 250.000 306.250 250.000 L 312.500 250.000 312.500 287.500 L 312.500 325.000 306.250 325.000 L 300.000 325.000 300.000 331.250 L 300.000 337.500 293.750 337.500 L 287.500 337.500 287.500 343.750 L 287.500 350.000 281.250 350.000 L 275.000 350.000 275.000 356.250 L 275.000 362.500 200.000 362.500 L 125.000 362.500 125.000 356.250 L 125.000 350.000 118.750 350.000 L 112.500 350.000 112.500 343.750 L 112.500 337.500 106.250 337.500 L 100.000 337.500 100.000 331.250 L 100.000 325.000 93.750 325.000 L 87.500 325.000 87.500 287.500 L 87.500 250.000 93.750 250.000 L 100.000 250.000 100.000 243.750 L 100.000 237.500 106.250 237.500 L 112.500 237.500 112.500 231.250 L 112.500 225.000 118.750 225.000 L 125.000 225.000 125.000 218.750 L 125.000 212.500 200.000 212.500 L 275.000 212.500 275.000 218.750 M175.000 231.250 L 175.000 237.500 168.750 237.500 L 162.500 237.500 162.500 268.750 L 162.500 300.000 168.750 300.000 L 175.000 300.000 175.000 325.000 L 175.000 350.000 200.000 350.000 L 225.000 350.000 225.000 325.000 L 225.000 300.000 231.250 300.000 L 237.500 300.000 237.500 268.750 L 237.500 237.500 231.250 237.500 L 225.000 237.500 225.000 231.250 L 225.000 225.000 200.000 225.000 L 175.000 225.000 175.000 231.250 M212.500 243.750 L 212.500 250.000 218.750 250.000 L 225.000 250.000 225.000 268.750 L 225.000 287.500 218.750 287.500 L 212.500 287.500 212.500 312.500 L 212.500 337.500 200.000 337.500 L 187.500 337.500 187.500 312.500 L 187.500 287.500 181.250 287.500 L 175.000 287.500 175.000 268.750 L 175.000 250.000 181.250 250.000 L 187.500 250.000 187.500 243.750 L 187.500 237.500 200.000 237.500 L 212.500 237.500 212.500 243.750 " stroke="none" fill="#04acf4" fill-rule="evenodd"></path><path id="path1" d="M125.000 18.750 L 125.000 25.000 118.750 25.000 L 112.500 25.000 112.500 31.250 L 112.500 37.500 106.250 37.500 L 100.000 37.500 100.000 75.000 L 100.000 112.500 112.500 112.500 L 125.000 112.500 125.000 87.500 L 125.000 62.500 131.250 62.500 L 137.500 62.500 137.500 56.250 L 137.500 50.000 143.750 50.000 L 150.000 50.000 150.000 43.750 L 150.000 37.500 200.000 37.500 L 250.000 37.500 250.000 43.750 L 250.000 50.000 256.250 50.000 L 262.500 50.000 262.500 56.250 L 262.500 62.500 268.750 62.500 L 275.000 62.500 275.000 118.750 L 275.000 175.000 287.500 175.000 L 300.000 175.000 300.000 106.250 L 300.000 37.500 293.750 37.500 L 287.500 37.500 287.500 31.250 L 287.500 25.000 281.250 25.000 L 275.000 25.000 275.000 18.750 L 275.000 12.500 200.000 12.500 L 125.000 12.500 125.000 18.750 M62.500 287.500 L 62.500 387.500 200.000 387.500 L 337.500 387.500 337.500 287.500 L 337.500 187.500 200.000 187.500 L 62.500 187.500 62.500 287.500 M325.000 287.500 L 325.000 375.000 200.000 375.000 L 75.000 375.000 75.000 287.500 L 75.000 200.000 200.000 200.000 L 325.000 200.000 325.000 287.500 M125.000 218.750 L 125.000 225.000 118.750 225.000 L 112.500 225.000 112.500 231.250 L 112.500 237.500 106.250 237.500 L 100.000 237.500 100.000 243.750 L 100.000 250.000 93.750 250.000 L 87.500 250.000 87.500 287.500 L 87.500 325.000 93.750 325.000 L 100.000 325.000 100.000 331.250 L 100.000 337.500 106.250 337.500 L 112.500 337.500 112.500 343.750 L 112.500 350.000 118.750 350.000 L 125.000 350.000 125.000 356.250 L 125.000 362.500 200.000 362.500 L 275.000 362.500 275.000 356.250 L 275.000 350.000 281.250 350.000 L 287.500 350.000 287.500 343.750 L 287.500 337.500 293.750 337.500 L 300.000 337.500 300.000 331.250 L 300.000 325.000 306.250 325.000 L 312.500 325.000 312.500 287.500 L 312.500 250.000 306.250 250.000 L 300.000 250.000 300.000 243.750 L 300.000 237.500 293.750 237.500 L 287.500 237.500 287.500 231.250 L 287.500 225.000 281.250 225.000 L 275.000 225.000 275.000 218.750 L 275.000 212.500 200.000 212.500 L 125.000 212.500 125.000 218.750 M225.000 231.250 L 225.000 237.500 231.250 237.500 L 237.500 237.500 237.500 268.750 L 237.500 300.000 231.250 300.000 L 225.000 300.000 225.000 325.000 L 225.000 350.000 200.000 350.000 L 175.000 350.000 175.000 325.000 L 175.000 300.000 168.750 300.000 L 162.500 300.000 162.500 268.750 L 162.500 237.500 168.750 237.500 L 175.000 237.500 175.000 231.250 L 175.000 225.000 200.000 225.000 L 225.000 225.000 225.000 231.250 " stroke="none" fill="#04bcd4" fill-rule="evenodd"></path><path id="path2" d="M187.500 243.750 L 187.500 250.000 181.250 250.000 L 175.000 250.000 175.000 268.750 L 175.000 287.500 181.250 287.500 L 187.500 287.500 187.500 312.500 L 187.500 337.500 200.000 337.500 L 212.500 337.500 212.500 312.500 L 212.500 287.500 218.750 287.500 L 225.000 287.500 225.000 268.750 L 225.000 250.000 218.750 250.000 L 212.500 250.000 212.500 243.750 L 212.500 237.500 200.000 237.500 L 187.500 237.500 187.500 243.750 " stroke="none" fill="#040404" fill-rule="evenodd"></path><path id="path3" d="" stroke="none" fill="#04b0b0" fill-rule="evenodd"></path><path id="path4" d="" stroke="none" fill="#04b8e8" fill-rule="evenodd"></path></g></svg>